<?xml version="1.0" encoding="UTF-8" standalone="no"?><!-- Generator: Gravit.io --><svg xmlns="http://www.w3.org/2000/svg" xmlns:xlink="http://www.w3.org/1999/xlink" style="isolation:isolate" viewBox="0 0 100 100" width="100pt" height="100pt"><defs><clipPath id="_clipPath_jcsYPWULhEw0wjAEKYtmRGIDOJ4AoMKH"><rect width="100" height="100"/></clipPath></defs><g clip-path="url(#_clipPath_jcsYPWULhEw0wjAEKYtmRGIDOJ4AoMKH)"><g><ellipse vector-effect="non-scaling-stroke" cx="50.306795865983965" cy="90.74013448920888" rx="44.888888888888886" ry="4.5370233780977145" fill="rgb(140,198,66)"/><rect x="5.418" y="82.537" width="89.778" height="8" transform="matrix(1,0,0,1,0,0)" fill="rgb(140,198,66)"/><ellipse vector-effect="non-scaling-stroke" cx="50.30679586598398" cy="82.53702337809771" rx="44.88888888888889" ry="4.5370233780977145" fill="rgb(140,198,66)"/></g><rect x="0" y="0" width="100" height="100" transform="matrix(1,0,0,1,0,0)" fill="none"/><g><ellipse vector-effect="non-scaling-stroke" cx="50.306777777777725" cy="15.999999999999998" rx="44.888888888888886" ry="4.537023378097709" fill="rgb(140,198,66)"/><rect x="5.418" y="7.797" width="89.778" height="8.203" transform="matrix(1,0,0,1,0,0)" fill="rgb(140,198,66)"/><ellipse vector-effect="non-scaling-stroke" cx="50.30677777777773" cy="7.796888888888847" rx="44.8888888888889" ry="4.537023378097708" fill="rgb(140,198,66)"/></g><g><ellipse vector-effect="non-scaling-stroke" cx="50.30679586598404" cy="79.83141750759549" rx="44.88888888888887" ry="4.5370233780977" fill="rgb(140,198,66)" stroke-width="1" stroke="rgb(255,255,255)" stroke-opacity="100" stroke-linejoin="miter" stroke-linecap="butt" stroke-miterlimit="4"/><rect x="5.418" y="71.831" width="89.778" height="8" transform="matrix(1,0,0,1,0,0)" fill="rgb(140,198,66)"/><ellipse vector-effect="non-scaling-stroke" cx="50.30679586598405" cy="68.76625230577257" rx="44.88888888888887" ry="4.5370233780977" fill="rgb(140,198,66)" stroke-width="1" stroke="rgb(255,255,255)" stroke-opacity="100" stroke-linejoin="miter" stroke-linecap="butt" stroke-miterlimit="4"/></g><g><ellipse vector-effect="non-scaling-stroke" cx="49.999999999999986" cy="68.06477848307293" rx="44.888888888888886" ry="4.537023378097711" fill="rgb(140,198,66)"/><rect x="5.111" y="59.862" width="89.778" height="8.203" transform="matrix(1,0,0,1,0,0)" fill="rgb(140,198,66)"/><ellipse vector-effect="non-scaling-stroke" cx="49.99999999999999" cy="59.86166737196177" rx="44.88888888888889" ry="4.537023378097711" fill="rgb(140,198,66)"/></g><g><ellipse vector-effect="non-scaling-stroke" cx="50.30679586598397" cy="45.82185873001981" rx="44.888888888888886" ry="4.537023378097707" fill="rgb(140,198,66)"/><rect x="5.418" y="37.285" width="89.778" height="8" transform="matrix(1,0,0,1,0,0)" fill="rgb(140,198,66)"/><ellipse vector-effect="non-scaling-stroke" cx="50.30679586598398" cy="34.24638976407178" rx="44.88888888888889" ry="4.537023378097707" fill="rgb(140,198,66)" stroke-width="1" stroke="rgb(255,255,255)" stroke-opacity="100" stroke-linejoin="miter" stroke-linecap="butt" stroke-miterlimit="4"/></g><g><ellipse vector-effect="non-scaling-stroke" cx="50.01574031042829" cy="33.46297662190228" rx="44.5978333333333" ry="4.537023378097707" fill="rgb(140,198,66)"/><rect x="5.418" y="27.761" width="89.778" height="6.702" transform="matrix(1,0,0,1,0,0)" fill="rgb(140,198,66)"/><ellipse vector-effect="non-scaling-stroke" cx="50.306795865983865" cy="26.95575615004585" rx="44.888888888888886" ry="4.537023378097707" fill="rgb(140,198,66)"/></g><path d=" M 66.381 63.963 C 69.457 63.628 71.79 60.835 71.683 57.484 C 71.578 54.133 68.926 51.452 65.745 51.452 L 65.533 51.452 C 62.245 51.564 59.7 54.468 59.806 57.931 C 59.913 59.606 60.549 61.059 61.503 62.064 C 57.898 69.549 52.383 75.022 44.112 79.602 C 38.491 82.73 32.659 83.847 26.827 83.065 C 22.054 82.395 18.343 80.161 16.01 76.474 C 12.616 71.001 12.298 65.08 15.162 59.16 C 17.177 54.915 20.358 51.787 22.373 50.223 C 21.948 48.771 21.312 46.313 20.994 44.526 C 5.617 56.255 7.208 72.118 11.874 79.602 C 15.373 85.188 22.479 88.65 30.326 88.65 C 32.447 88.65 34.568 88.427 36.689 87.869 C 50.262 85.076 60.549 76.586 66.381 63.963 L 66.381 63.963 Z  M 85.045 50.112 C 76.986 40.17 65.109 34.696 51.535 34.696 L 49.838 34.696 C 48.884 32.685 46.869 31.345 44.642 31.345 L 44.43 31.345 C 41.143 31.456 38.598 34.361 38.704 37.824 C 38.81 41.175 41.461 43.856 44.642 43.856 L 44.854 43.856 C 47.187 43.744 49.202 42.18 50.05 40.058 L 51.959 40.058 C 60.019 40.058 67.654 42.515 74.547 47.319 C 79.849 51.005 83.667 55.809 85.788 61.617 C 87.59 66.309 87.484 70.889 85.575 74.799 C 82.606 80.719 77.622 83.959 71.047 83.959 C 66.806 83.959 62.776 82.618 60.655 81.613 C 59.488 82.73 57.367 84.517 55.883 85.634 C 60.443 87.868 65.109 89.097 69.563 89.097 C 79.743 89.097 87.272 83.177 90.136 77.256 C 93.211 70.777 92.999 59.606 85.045 50.112 L 85.045 50.112 Z  M 31.174 65.862 C 31.28 69.213 33.931 71.894 37.113 71.894 L 37.325 71.894 C 40.612 71.782 43.157 68.878 43.051 65.415 C 42.945 62.064 40.294 59.383 37.113 59.383 L 36.901 59.383 C 36.689 59.383 36.37 59.383 36.159 59.494 C 31.811 51.898 30.008 43.632 30.644 34.696 C 31.068 27.993 33.189 22.184 36.901 17.381 C 39.976 13.248 45.915 11.237 49.944 11.126 C 61.185 10.902 65.957 25.647 66.275 31.568 C 67.654 31.903 69.987 32.685 71.578 33.244 C 70.305 15.147 59.7 5.764 49.52 5.764 C 39.976 5.764 31.174 13.025 27.675 23.749 C 22.797 38.047 25.978 51.787 31.917 62.623 C 31.387 63.404 31.068 64.633 31.174 65.862 L 31.174 65.862 Z " fill="rgb(0,55,94)"/></g></svg>